<svg xmlns="http://www.w3.org/2000/svg" viewBox="0 0 205 32" id="Volta-layout-1">
  <path fill="#1494ed" d="M19.5 5.4c0 2.9-2.2 5.2-4.9 5.2S9.7 8.3 9.7 5.4 11.9.2 14.6.2c2.7.1 4.9 2.4 4.9 5.2"/>
  <path fill="#ff8f02" d="M.1 3.6c-.5-2.1 1.3-2.2 1.7-1.2 4.6 9.5 10.6 20.9 12.9 20.9s8.2-11.4 12.8-20.9c.4-1.1 2.2-.8 1.7 1.1-3.7 11.7-9.4 26.8-14.4 26.8-5.3 0-11-15-14.7-26.7M29.8 18.2c0-4.2 2.4-8.4 8.4-8.4s8.4 4.2 8.4 8.4c0 6.3-4.3 8.4-8.4 8.4s-8.4-2.1-8.4-8.4m13.3-.1c0-3.7-2.3-5.2-4.9-5.2-2.7 0-4.9 1.5-4.9 5.2 0 3.4 1.8 5.4 4.9 5.4s4.9-2 4.9-5.4M50.8 10.3h3.4v2c1.1-1.1 2.6-2.5 5.6-2.5 3.1 0 5.9 1.4 5.9 6.2v10.1h-3.5v-8.8c0-3.1-.9-4.4-3.2-4.4-2.8 0-3.9 1.2-4.8 2.3v10.9h-3.5V10.3h.1zM85.7 23.5c0 1.1.1 2.1.3 2.6h-3.5c-.1-.5-.2-1.1-.2-1.6-1.5.9-3.6 2.1-6.6 2.1-2 0-5.8-.9-5.8-4.8 0-5.3 7.5-6.1 12.4-6.4v-.7c0-1.2-1-2.1-3.9-2.1-3.2 0-3.9 1.2-4.1 2.1h-3.6c.8-4.3 4.8-5 7.6-5 7.2 0 7.4 3.7 7.4 5.9v7.9zm-3.4-5.4c-2 .1-3.8.4-5.4.8-2.2.5-3.2 1.3-3.2 2.7 0 1.4.8 2.2 2.5 2.2 2.6 0 4.7-1.2 6.1-2.1v-3.6zM107.1 12.9c-.3-.1-.9-.3-1.3-.2-.4 0-.9.2-1.1.3.2.3.7 1.3.7 2.6 0 4.3-3.6 5.8-7.6 5.8-1.4 0-2.5-.2-3.2-.5-.4.3-1 .7-1 1.3 0 .6.3.9 3.4.9h4.7c3.4.1 5.3 1.1 5.3 3.6 0 3.8-5.2 4.9-9.8 4.9-4.2 0-7.8-.9-7.8-3.5 0-1.9 1.6-2.1 3-2.4v-.1c-1.3-.1-2.3-.9-2.3-2.4 0-1.6 1.4-2.8 2.6-3V20c-1.7-1-2.5-2.5-2.5-4.5 0-4.6 4.1-5.7 7.7-5.7 2.6 0 4.2.7 5.2 1.4.5-.6 1.6-1.7 3.2-1.7h.6v3.4h.2zM95.3 26.3c-.8 0-2 .2-2 1.1 0 1.3 1.6 1.4 4.4 1.4 2.7 0 5.6-.3 5.6-1.6 0-1.1-.6-1-4.4-1h-3.6v.1zm6.7-10.8c0-2.4-2.3-3.1-4.1-3.1-1.9 0-4 .7-4 3.1 0 2.5 2.2 3.1 4 3.1 1.8 0 4.1-.7 4.1-3.1zM126.4 21.4c-.3 1.3-2.3 5.3-7.8 5.3-5.4 0-8.6-3.5-8.6-8.5 0-4.5 2.8-8.4 8.3-8.4 5.6.1 8.4 3.7 8.4 9.4h-13.2c.1 1 .7 4.3 4.9 4.5 2.2 0 3.6-1.1 4.1-2.3h3.9zm-3.4-5c-.5-2.7-2.3-3.7-4.7-3.7-1.8 0-3.9.6-4.6 3.7h9.3zM126.4 10.2c0 1.5 1.2 2.7 2.6 2.7 1.4 0 2.6-1.2 2.6-2.7s-1.2-2.7-2.6-2.7c-1.4.1-2.6 1.2-2.6 2.7zm.5 0c0-1.3.9-2.3 2.1-2.3s2.1 1 2.1 2.3-.9 2.3-2.1 2.3c-1.2 0-2.1-1-2.1-2.3zm1.1 1.6h.5v-1.3h.5l.8 1.3h.5l-.9-1.4c.4 0 .8-.3.8-.9 0-.6-.3-.9-1-.9H128v3.2zm.5-2.7h.6c.3 0 .7.1.7.5 0 .5-.4.5-.8.5h-.5v-1z"/>
  <path fill="#637381" d="M151 10.7L144.8 26h-3.2l-6.1-15.3h2.9c.3 0 .6.1.7.2s.3.3.4.6l3 8.2c.1.4.3.7.4 1.2.1.4.3.9.4 1.3.1-.5.2-.9.3-1.3s.3-.8.4-1.2l2.9-8.2c.1-.2.2-.4.4-.5.2-.2.4-.2.7-.2h3v-.1zm27 12.5V26h-9.2V10.7h3.5v12.5h5.7zm10.9-9.7h-4.3V26H181V13.5h-4.3v-2.8h12.2v2.8zm8.8 6.7l-1.4-4.2-.3-.9c-.1-.4-.2-.8-.4-1.2l-.3 1.2c-.1.4-.2.7-.3.9l-1.4 4.2h4.1zm5.6 5.8h-2.8c-.3 0-.6-.1-.7-.2-.2-.1-.3-.3-.4-.6l-.9-2.7h-5.8l-.9 2.7c-.1.2-.2.4-.4.5-.2.2-.4.2-.7.2h-2.8l5.9-15.3h3.6l5.9 15.4z"/>
  <circle cx="158.7" cy="18.5" r="7" fill="none" stroke="#637381" stroke-width="2"/>
  <path fill="#637381" d="M161.3 13l-6.1 6.1h2.3l-1.8 4.7 6.3-6.1h-2.3z"/>
</svg>
